Coordinates
version=1
nRows=66
nColumns=19
inDegrees=yes

Units are S.I. units (second, meters, Newtons, ...)
Angles are in degrees.

endheader
time	1_Force_X	1_Force_Y	1_Force_Z	1_Moment_X	1_Moment_Y	1_Moment_Z	1_COP_X	1_COP_Y	1_COP_Z	2_Force_X	2_Force_Y	2_Force_Z	2_Moment_X	2_Moment_Y	2_Moment_Z	2_COP_X	2_COP_Y	2_COP_Z
0.4925	37.461	-3.127	1.980	-0.231	0.000	0.494	-4.042	2.923	-1.975	-0.212	0.000	0.249	0.00000	10.87450	0.00000	0.00000	10.65569	0.00000
0.4950	37.414	-3.131	1.846	-0.224	0.000	0.482	-4.565	2.754	-1.936	-0.212	0.000	0.247	0.00000	12.26427	0.00000	0.00000	12.58757	0.00000
0.4975	37.540	-2.614	1.447	-0.211	0.000	0.477	-4.302	2.751	-2.109	-0.213	0.000	0.248	0.00000	13.56861	0.00000	0.00000	11.51531	0.00000
0.5000	37.672	-1.047	1.446	-0.198	0.000	0.498	-4.390	3.606	-2.326	-0.213	0.000	0.247	0.00000	15.12099	0.00000	0.00000	9.30434	0.00000
0.5025	38.331	-1.401	1.266	-0.205	0.000	0.482	-4.300	4.294	-2.454	-0.214	0.000	0.247	0.00000	16.82585	0.00000	0.00000	8.14846	0.00000
0.5050	38.324	-0.883	0.780	-0.184	0.000	0.482	-4.389	4.638	-2.322	-0.214	0.000	0.247	0.00000	21.38170	0.00000	0.00000	8.14906	0.00000
0.5075	38.847	-0.540	0.645	-0.166	0.000	0.473	-4.606	3.435	-2.503	-0.213	0.000	0.247	0.00000	34.47703	0.00000	0.00000	9.73348	0.00000
0.5100	39.458	-0.023	-0.020	-0.162	0.000	0.474	-4.518	3.606	-2.590	-0.213	0.000	0.247	0.00000	556.31627	0.00000	0.00000	9.10806	0.00000
0.5125	40.072	-1.422	0.022	-0.169	0.000	0.450	-4.216	3.095	-1.931	-0.214	0.000	0.250	0.00000	23.61819	0.00000	0.00000	10.97350	0.00000
0.5150	40.067	-1.080	-0.421	-0.157	0.000	0.430	-4.565	3.268	-1.934	-0.215	0.000	0.247	0.00000	33.23324	0.00000	0.00000	11.30999	0.00000
0.5175	40.770	-0.912	-0.513	-0.156	0.000	0.424	-4.302	3.267	-2.150	-0.214	0.000	0.248	0.00000	39.71725	0.00000	0.00000	10.30686	0.00000
0.5200	41.076	-0.568	-0.559	-0.135	0.000	0.428	-4.302	2.407	-2.197	-0.212	0.000	0.249	0.00000	55.09079	0.00000	0.00000	12.37850	0.00000
0.5225	41.200	-0.230	-1.269	-0.117	0.000	0.395	-4.302	2.408	-2.198	-0.212	0.000	0.248	0.00000	155.06367	0.00000	0.00000	12.24665	0.00000
0.5250	41.422	-1.444	-1.355	-0.149	0.000	0.426	-4.129	2.409	-1.977	-0.213	0.000	0.249	0.00000	28.21672	0.00000	0.00000	12.45192	0.00000
0.5275	41.639	-0.058	-1.712	-0.124	0.000	0.412	-4.300	3.264	-2.500	-0.213	0.000	0.249	0.00000	498.05519	0.00000	0.00000	9.58540	0.00000
0.5300	42.034	0.634	-1.759	-0.102	0.000	0.406	-4.474	4.294	-2.543	-0.214	0.000	0.247	0.00000	-35.23521	0.00000	0.00000	8.31400	0.00000
0.5325	42.162	0.970	-2.072	-0.075	0.000	0.356	-4.519	3.951	-2.414	-0.213	0.000	0.245	0.00000	-30.37203	0.00000	0.00000	8.88106	0.00000
0.5350	42.638	0.269	-2.559	-0.078	0.000	0.351	-4.389	2.924	-2.151	-0.213	0.000	0.250	0.00000	-149.80945	0.00000	0.00000	11.38235	0.00000
0.5375	43.384	0.259	-2.652	-0.065	0.000	0.340	-4.303	2.923	-2.064	-0.212	0.000	0.249	0.00000	-169.61799	0.00000	0.00000	11.15930	0.00000
0.5400	43.733	-0.266	-2.873	-0.070	0.000	0.346	-4.303	2.926	-1.976	-0.213	0.000	0.248	0.00000	186.97141	0.00000	0.00000	11.41718	0.00000
0.5425	43.903	1.637	-3.364	0.023	0.000	0.271	-4.085	3.611	-1.930	-0.214	0.000	0.248	0.00000	-22.34040	0.00000	0.00000	9.51690	0.00000
0.5450	45.084	0.769	-3.938	-0.039	0.000	0.299	-4.476	3.095	-2.152	-0.213	0.000	0.249	0.00000	-60.06908	0.00000	0.00000	11.10191	0.00000
0.5475	45.527	1.637	-3.587	0.014	0.000	0.306	-4.080	3.434	-2.760	-0.213	0.000	0.249	0.00000	-18.42670	0.00000	0.00000	8.26780	0.00000
0.5500	45.656	2.148	-4.077	0.063	0.000	0.260	-4.871	4.640	-1.975	-0.216	0.000	0.246	0.00000	-13.85962	0.00000	0.00000	9.50555	0.00000
0.5525	45.385	1.973	-4.959	0.042	0.000	0.247	-4.251	4.634	-3.107	-0.216	0.000	0.248	0.00000	-17.30009	0.00000	0.00000	6.95945	0.00000
0.5550	46.439	1.619	-4.609	0.049	0.000	0.248	-4.612	3.440	-1.716	-0.212	0.000	0.246	0.00000	-25.99799	0.00000	0.00000	11.25774	0.00000
0.5575	46.347	1.781	-5.010	0.087	0.000	0.211	-4.038	3.268	-2.236	-0.215	0.000	0.248	0.00000	-25.65471	0.00000	0.00000	9.48091	0.00000
0.5600	46.652	2.132	-5.406	0.108	0.000	0.232	-4.566	4.469	-1.975	-0.214	0.000	0.246	0.00000	-15.61414	0.00000	0.00000	9.08329	0.00000
0.5625	46.650	1.431	-5.584	0.057	0.000	0.219	-4.344	2.236	-2.326	-0.212	0.000	0.252	0.00000	-35.40344	0.00000	0.00000	13.19806	0.00000
0.5650	46.734	3.166	-5.985	0.239	0.000	0.095	-4.171	4.120	-2.412	-0.214	0.000	0.246	0.00000	-10.13437	0.00000	0.00000	7.96953	0.00000
0.5675	47.395	3.162	-5.812	0.242	0.000	0.085	-4.607	3.092	-2.326	-0.211	0.000	0.252	0.00000	-11.04289	0.00000	0.00000	11.20660	0.00000
0.5700	47.299	2.291	-6.383	0.173	0.000	0.164	-4.258	3.095	-2.108	-0.214	0.000	0.247	0.00000	-17.92590	0.00000	0.00000	10.52316	0.00000
0.5725	48.313	2.105	-6.213	0.150	0.000	0.141	-4.171	2.923	-2.106	-0.215	0.000	0.249	0.00000	-24.99527	0.00000	0.00000	10.85932	0.00000
0.5750	47.873	3.330	-6.299	0.296	0.000	0.068	-4.344	3.261	-2.632	-0.213	0.000	0.249	0.00000	-9.50237	0.00000	0.00000	9.28847	0.00000
0.5775	48.134	2.804	-6.521	0.220	0.000	0.083	-5.000	4.640	-2.282	-0.214	0.000	0.247	0.00000	-15.74759	0.00000	0.00000	9.32251	0.00000
0.5800	48.613	3.151	-6.655	0.283	0.000	0.017	-4.300	4.468	-2.410	-0.216	0.000	0.245	0.00000	-14.24701	0.00000	0.00000	8.04060	0.00000
0.5825	48.876	5.232	-6.395	1.229	0.000	-0.732	-4.560	3.949	-2.762	-0.214	0.000	0.248	0.00000	-5.01629	0.00000	0.00000	8.59301	0.00000
0.5850	48.961	3.669	-6.745	0.418	0.000	-0.069	-4.649	3.609	-2.501	-0.212	0.000	0.248	0.00000	-10.81231	0.00000	0.00000	9.73061	0.00000
0.5875	49.358	3.144	-6.967	0.291	0.000	0.014	-4.562	4.123	-2.412	-0.214	0.000	0.247	0.00000	-14.57465	0.00000	0.00000	8.93881	0.00000
0.5900	49.750	3.316	-6.791	0.363	0.000	-0.038	-3.909	3.266	-2.192	-0.214	0.000	0.248	0.00000	-14.56377	0.00000	0.00000	9.19914	0.00000
0.5925	50.276	2.782	-7.193	0.280	0.000	0.002	-4.172	2.924	-1.975	-0.213	0.000	0.249	0.00000	-21.54785	0.00000	0.00000	11.07162	0.00000
0.5950	50.230	3.661	-7.191	0.442	0.000	-0.081	-4.258	3.952	-2.235	-0.214	0.000	0.249	0.00000	-11.44599	0.00000	0.00000	8.94394	0.00000
0.5975	50.272	4.007	-7.280	0.549	0.000	-0.183	-4.563	3.778	-2.369	-0.215	0.000	0.248	0.00000	-10.29569	0.00000	0.00000	9.49957	0.00000
0.6000	50.582	4.171	-7.019	0.645	0.000	-0.275	-4.431	3.952	-2.456	-0.213	0.000	0.247	0.00000	-11.02147	0.00000	0.00000	8.78284	0.00000
0.6025	50.667	4.696	-7.151	0.906	0.000	-0.469	-4.300	3.950	-2.542	-0.213	0.000	0.248	0.00000	-8.16198	0.00000	0.00000	8.37549	0.00000
0.6050	51.144	5.210	-7.507	1.464	0.000	-0.897	-4.560	4.465	-2.761	-0.213	0.000	0.248	0.00000	-6.94943	0.00000	0.00000	8.00158	0.00000
0.6075	50.972	3.822	-7.504	0.564	0.000	-0.139	-4.213	3.951	-2.411	-0.214	0.000	0.247	0.00000	-11.13717	0.00000	0.00000	8.45758	0.00000
0.6100	51.059	3.993	-7.153	0.633	0.000	-0.290	-4.041	2.923	-2.107	-0.212	0.000	0.248	0.00000	-13.95867	0.00000	0.00000	10.28160	0.00000
0.6125	51.101	3.469	-7.594	0.491	0.000	-0.136	-4.215	2.754	-1.931	-0.214	0.000	0.250	0.00000	-16.19606	0.00000	0.00000	11.96398	0.00000
0.6150	51.545	3.293	-7.464	0.421	0.000	-0.085	-4.041	2.580	-1.975	-0.214	0.000	0.250	0.00000	-17.27406	0.00000	0.00000	11.67328	0.00000
0.6175	51.410	3.638	-7.465	0.520	0.000	-0.226	-4.171	2.751	-2.151	-0.212	0.000	0.249	0.00000	-17.53430	0.00000	0.00000	11.06560	0.00000
0.6200	51.409	3.294	-7.771	0.430	0.000	-0.096	-4.171	2.924	-2.108	-0.215	0.000	0.247	0.00000	-17.38754	0.00000	0.00000	10.66083	0.00000
0.6225	51.368	3.818	-7.728	0.531	0.000	-0.158	-4.518	3.607	-2.589	-0.212	0.000	0.248	0.00000	-12.08901	0.00000	0.00000	9.20529	0.00000
0.6250	51.189	5.724	-7.909	2.456	0.000	-1.805	-4.343	4.465	-2.628	-0.214	0.000	0.247	0.00000	-5.88583	0.00000	0.00000	7.84557	0.00000
0.6275	51.056	4.506	-8.127	0.850	0.000	-0.420	-4.258	4.126	-2.191	-0.214	0.000	0.247	0.00000	-9.40869	0.00000	0.00000	8.73831	0.00000
0.6300	51.274	4.664	-8.443	1.010	0.000	-0.579	-4.086	3.096	-1.888	-0.213	0.000	0.248	0.00000	-10.32928	0.00000	0.00000	10.54552	0.00000
0.6325	50.970	3.455	-8.305	0.474	0.000	-0.144	-4.125	3.610	-2.366	-0.214	0.000	0.249	0.00000	-16.53154	0.00000	0.00000	8.96072	0.00000
0.6350	51.497	3.970	-8.266	0.638	0.000	-0.312	-4.042	2.579	-1.975	-0.213	0.000	0.251	0.00000	-14.76862	0.00000	0.00000	11.73721	0.00000
0.6375	51.320	3.453	-8.527	0.468	0.000	-0.140	-4.258	2.924	-2.152	-0.214	0.000	0.248	0.00000	-16.42931	0.00000	0.00000	10.84025	0.00000
0.6400	51.496	4.489	-8.268	0.867	0.000	-0.556	-3.952	3.440	-2.105	-0.216	0.000	0.246	0.00000	-12.99439	0.00000	0.00000	9.15809	0.00000
0.6425	51.010	4.838	-8.266	1.140	0.000	-0.790	-4.041	3.612	-1.929	-0.214	0.000	0.248	0.00000	-11.45076	0.00000	0.00000	9.47634	0.00000
0.6450	50.881	4.670	-8.484	0.958	0.000	-0.524	-4.343	3.950	-2.585	-0.213	0.000	0.249	0.00000	-9.15202	0.00000	0.00000	8.51604	0.00000
0.6475	50.838	4.676	-8.085	0.952	0.000	-0.529	-4.389	3.951	-2.324	-0.214	0.000	0.247	0.00000	-9.30724	0.00000	0.00000	8.91193	0.00000
0.6500	50.753	3.805	-7.687	0.593	0.000	-0.220	-4.215	2.235	-2.195	-0.213	0.000	0.251	0.00000	-14.18390	0.00000	0.00000	12.98722	0.00000
0.6525	50.360	3.287	-7.464	0.440	0.000	-0.125	-4.129	3.094	-1.976	-0.213	0.000	0.248	0.00000	-18.84127	0.00000	0.00000	10.42046	0.00000
0.6550	50.317	3.982	-7.863	0.588	0.000	-0.223	-4.561	2.918	-2.633	-0.213	0.000	0.250	0.00000	-11.73925	0.00000	0.00000	10.71267	0.00000
